<svg xmlns="http://www.w3.org/2000/svg" viewBox="0 0 24 24"><defs><style>.cls-1{fill:#016536;}.cls-1,.cls-2{fill-rule:evenodd;}.cls-2{fill:#ec2227;}</style></defs><g id="Layer_2" data-name="Layer 2"><g id="Layer_1-2" data-name="Layer 1"><g id="Layer_2-2" data-name="Layer 2"><g id="Layer_1-2-2" data-name="Layer 1-2"><g id="Layer_2-2-2" data-name="Layer 2-2"><g id="Layer_1-2-2-2" data-name="Layer 1-2-2"><path class="cls-1" d="M11.912,15.416c-3.225,0-8.523-.734-10.809-2.826a4.745,4.745,0,0,0-1-.99c-.1,2.8-.338,4,1.718,5.308a10.409,10.409,0,0,0,1.626.812c4.562,1.928,11.962,1.922,16.627.17,4.25-1.6,4.011-3.188,3.8-6.49-.887.4-.637,1.838-4.778,3.044A25.958,25.958,0,0,1,11.912,15.416Z"/><path class="cls-2" d="M.293,16.352c-.145.16-.2-.218-.226.926-.042,2.43-.364,3.662,3.007,5.16,5.483,2.444,16.6,2.026,19.894-1.3,1.352-1.374,1.036-2.942.9-4.9-.869.366-.243.8-1.939,1.85C16.308,21.574,2.364,20.762.293,16.352Z"/><path class="cls-1" d="M.184,6.868A5.807,5.807,0,0,0,.6,10.906c3.425,4.558,19.881,4.546,22.9-.2.662-1.04.451-2.852.282-4.1-.356.166-.545.612-.827.922-3.4,3.732-16.022,3.852-20.744,1.054C.29,7.436.828,7.1.184,6.868Z"/><path class="cls-1" d="M9.345.122A19.158,19.158,0,0,0,2.725,1.81C-2.268,4.21.6,7.728,6.645,8.918a27.933,27.933,0,0,0,7.942.4,19.469,19.469,0,0,0,6.641-1.642c1.711-.8,3.8-2.6,1.86-4.7C20.669.356,13.313-.312,9.345.122Z"/></g></g></g></g></g></g></svg>